<svg width="393" height="852" viewBox="0 0 393 852" fill="none" xmlns="http://www.w3.org/2000/svg">
<g clip-path="url(#clip0_37_2)">
<rect width="393" height="852" fill="#EAEBEA"/>
<path d="M253.5 1H1V469C11.5 470.5 50.3 444.1 75.5 410.5C113 360.5 92.0793 252.425 152.5 195C213 137.5 265.5 56.3333 253.5 1Z" fill="#E2E2DF"/>
<path d="M394 597.145V852H52C57.3303 761.823 72.0556 698.845 103.584 667.938C160.842 611.809 145.367 560.737 163.421 521.296C211.566 416.117 336.056 420.163 355.828 492.473C366.557 531.712 372.163 582.143 394 597.145Z" fill="#E2E2DF"/>
<path d="M156.25 422.058H159.504C159.85 422.058 160.072 422.01 160.196 421.966C160.756 418.748 163.258 409.476 173.738 405.152C173.622 401.288 172.666 398.088 170.64 392.614C170.382 391.918 170.53 391.136 171.026 390.584C171.522 390.032 172.288 389.8 173.002 389.98C179.81 391.688 184.624 395.308 187.666 401.02C191.18 400.28 194.826 399.906 198.526 399.906C209.06 399.906 217.922 402.82 225.622 408.812C232.554 414.21 236.128 423.004 235.686 433.572C235.298 442.83 228.652 449.486 224.572 452.748C224.012 453.18 224 453.188 224.17 453.714C224.784 455.6 225.908 458.3 225.942 458.386C226.46 459.742 226.416 461.218 225.82 462.544C225.224 463.874 224.148 464.888 222.788 465.406L216.358 467.838C213.63 468.876 210.37 467.4 209.342 464.694C209.342 464.694 208.482 462.454 207.786 460.594C207.716 460.406 207.656 460.268 207.61 460.166C207.328 460.208 206.934 460.29 206.522 460.376C204.904 460.714 202.462 461.226 198.526 461.226C194.984 461.226 192.58 460.968 190.99 460.798C190.248 460.72 189.682 460.654 189.238 460.654C189.21 460.716 189.182 460.798 189.146 460.898C188.504 462.824 187.718 464.68 187.714 464.682C186.922 466.784 184.88 468.194 182.628 468.194C181.966 468.194 181.316 468.074 180.698 467.84L174.266 465.406C172.904 464.888 171.824 463.87 171.228 462.538C170.632 461.212 170.592 459.736 171.106 458.392L172.138 455.664C172.178 455.56 172.208 455.514 172.264 455.418C172.264 455.418 172.19 455.286 171.856 455.106C167.13 452.534 163.36 448.52 160.95 443.494C160.504 442.558 160.304 442.322 159.502 442.322H156.248C153.354 442.322 150.998 439.968 150.998 437.074V427.316C151 424.416 153.356 422.058 156.25 422.058ZM174.04 429.844C176.16 429.844 177.872 428.13 177.872 426.016C177.872 423.906 176.16 422.192 174.04 422.192C171.928 422.192 170.22 423.906 170.22 426.016C170.218 428.128 171.928 429.844 174.04 429.844Z" fill="#E2E2DF"/>
<path d="M198.526 395.906C197.346 395.906 196.174 395.97 195.004 396.04C195.048 387.808 201.756 381.124 210 381.124C218.272 381.124 225 387.852 225 396.124C225 398.384 224.504 400.55 223.53 402.562C216.204 398.116 207.982 395.906 198.526 395.906Z" fill="#E2E2DF"/>
<path d="M233.346 424.192C233.494 424.192 233.644 424.176 233.794 424.142C236.978 423.414 243 420.258 243 413.538C243 409.812 240.984 406.534 237.866 405.19C236.856 404.752 235.676 405.22 235.238 406.234C234.802 407.248 235.268 408.426 236.282 408.862C237.958 409.586 239 411.376 239 413.538C239 418.786 232.962 420.228 232.902 420.244C231.824 420.49 231.152 421.564 231.4 422.64C231.61 423.566 232.434 424.192 233.346 424.192Z" fill="#E2E2DF"/>
</g>
<defs>
<clipPath id="clip0_37_2">
<rect width="393" height="852" fill="white"/>
</clipPath>
</defs>
</svg>
