<svg fill="none" height="1440" viewBox="0 0 3440 1440" width="3440"
     xmlns="http://www.w3.org/2000/svg">
  <g clip-path="url(#clip0_105_30)">
    <rect fill="#EAEBEA" height="1440" width="3440"/>
    <path
      d="M759.5 2C762.333 44.1667 774.538 173.5 816 271.5C865.5 388.5 907 501 887.5 683.5C868 866 625.016 955.226 525 1017.5C392.5 1100 351.5 1239.5 345 1376C343.507 1407.35 342.693 1428.02 342.342 1441H345C343.456 1457.99 341.47 1473.22 342.342 1441H0V2H759.5Z"
      fill="#E2E2DF"/>
    <path
      d="M2426 204C2470.74 138.051 2512.5 13 2825 0H3437C3438.5 81.6667 3440.6 265 3437 345C3426.44 579.5 3380.5 670.5 3302.5 738C3224.5 805.5 3222 675 3014 859.5C2870.5 931 2738.5 911.5 2634 874.5C2529.5 837.5 2532 709 2512.5 583.5C2493 458 2311 373.5 2426 204Z"
      fill="#E2E2DF"/>
    <path
      d="M1076 1224C1008 1359.6 839.333 1423.5 763.5 1438.5H2330.5C2330.5 1417 2224 1323.96 2224 1224C2224 1161 2072 1024.5 1961.5 1065.5C1851 1106.5 1805.67 1133.13 1749 1093.5C1677.5 1043.5 1675 970 1631.5 920C1588 870 1482 794 1308.5 896C1135 998 1161 1054.5 1076 1224Z"
      fill="#E2E2DF"/>
    <path
      d="M1638.5 712.116H1645.01C1645.7 712.116 1646.14 712.02 1646.39 711.932C1647.51 705.496 1652.52 686.952 1673.48 678.304C1673.24 670.576 1671.33 664.176 1667.28 653.228C1666.76 651.836 1667.06 650.272 1668.05 649.168C1669.04 648.064 1670.58 647.6 1672 647.96C1685.62 651.376 1695.25 658.616 1701.33 670.04C1708.36 668.56 1715.65 667.812 1723.05 667.812C1744.12 667.812 1761.84 673.64 1777.24 685.624C1791.11 696.42 1798.26 714.008 1797.37 735.144C1796.6 753.66 1783.3 766.972 1775.14 773.496C1774.02 774.36 1774 774.376 1774.34 775.428C1775.57 779.2 1777.82 784.6 1777.88 784.772C1778.92 787.484 1778.83 790.436 1777.64 793.088C1776.45 795.748 1774.3 797.776 1771.58 798.812L1758.72 803.676C1753.26 805.752 1746.74 802.8 1744.68 797.388C1744.68 797.388 1742.96 792.908 1741.57 789.188C1741.43 788.812 1741.31 788.536 1741.22 788.332C1740.66 788.416 1739.87 788.58 1739.04 788.752C1735.81 789.428 1730.92 790.452 1723.05 790.452C1715.97 790.452 1711.16 789.936 1707.98 789.596C1706.5 789.44 1705.36 789.308 1704.48 789.308C1704.42 789.432 1704.36 789.596 1704.29 789.796C1703.01 793.648 1701.44 797.36 1701.43 797.364C1699.84 801.568 1695.76 804.388 1691.26 804.388C1689.93 804.388 1688.63 804.148 1687.4 803.68L1674.53 798.812C1671.81 797.776 1669.65 795.74 1668.46 793.076C1667.26 790.424 1667.18 787.472 1668.21 784.784L1670.28 779.328C1670.36 779.12 1670.42 779.028 1670.53 778.836C1670.53 778.836 1670.38 778.572 1669.71 778.212C1660.26 773.068 1652.72 765.04 1647.9 754.988C1647.01 753.116 1646.61 752.644 1645 752.644H1638.5C1632.71 752.644 1628 747.936 1628 742.148V722.632C1628 716.832 1632.71 712.116 1638.5 712.116ZM1674.08 727.688C1678.32 727.688 1681.74 724.26 1681.74 720.032C1681.74 715.812 1678.32 712.384 1674.08 712.384C1669.86 712.384 1666.44 715.812 1666.44 720.032C1666.44 724.256 1669.86 727.688 1674.08 727.688Z"
      fill="#E2E2DF"/>
    <path
      d="M1723.05 659.812C1720.69 659.812 1718.35 659.94 1716.01 660.08C1716.1 643.616 1729.51 630.248 1746 630.248C1762.54 630.248 1776 643.704 1776 660.248C1776 664.768 1775.01 669.1 1773.06 673.124C1758.41 664.232 1741.96 659.812 1723.05 659.812Z"
      fill="#E2E2DF"/>
    <path
      d="M1792.69 716.384C1792.99 716.384 1793.29 716.352 1793.59 716.284C1799.96 714.828 1812 708.516 1812 695.076C1812 687.624 1807.97 681.068 1801.73 678.38C1799.71 677.504 1797.35 678.44 1796.48 680.468C1795.6 682.496 1796.54 684.852 1798.56 685.724C1801.92 687.172 1804 690.752 1804 695.076C1804 705.572 1791.92 708.456 1791.8 708.488C1789.65 708.98 1788.3 711.128 1788.8 713.28C1789.22 715.132 1790.87 716.384 1792.69 716.384Z"
      fill="#E2E2DF"/>
  </g>
  <defs>
    <clipPath id="clip0_105_30">
      <rect fill="white" height="1440" width="3440"/>
    </clipPath>
  </defs>
</svg>
